# xmcd
#
# Track frame offsets:
#	182
#	11157
#	25460
#	43522
#	58985
#	81065
#	92292
#	105712
#	124487
#	140012
#	150807
#	171862
#	187772
#	207475
#	222715
#	235870
#
# Disc length: 3286 seconds
#
# Revision: 1
# Processed by: cddbd v1.5.2PL0 Copyright (c) Steve Scherf et al.
# Submitted via: audiograbber 1.83.01
#
DISCID=dd0cd410
DTITLE=Nightwing (USAF band) - Heartland Of America Band
DYEAR=1994
DGENRE=Country
TTITLE0=Quit Picken' On Me
TTITLE1=Take It Back
TTITLE2=Love Me
TTITLE3=Back Roads
TTITLE4=Walkaway Joe
TTITLE5=I Want You Bad (And That Ain't Good)
TTITLE6=One Broken Heart A Lifetime
TTITLE7=Friends In Low Places
TTITLE8=Now That's Country
TTITLE9=The Jackpot
TTITLE10=Crazy
TTITLE11=Achy Breaky Heart
TTITLE12=Nowhere Town
TTITLE13=I Feel Lucky
TTITLE14=What Do I Do With Me
TTITLE15=Tutti Frutti
EXTD=Nightwing is Air Combat Command's regional music group based at Offut AFB,
EXTD=NE.  They represent the AF as ambassadors to the public, and tour worldwi
EXTD=de to provide entertainment and morale to our military members both states
EXTD=ide and overseas.
EXTT0=
EXTT1=
EXTT2=
EXTT3=
EXTT4=
EXTT5=
EXTT6=
EXTT7=
EXTT8=
EXTT9=
EXTT10=
EXTT11=
EXTT12=
EXTT13=
EXTT14=
EXTT15=
PLAYORDER=
